<svg xmlns="http://www.w3.org/2000/svg" viewBox="0 0 354.14 474.41"><defs><style>.cls-1{fill:#fdfd83;}.cls-1,.cls-11,.cls-4,.cls-5,.cls-6,.cls-7,.cls-8,.cls-9{stroke:#3a3212;}.cls-1,.cls-4,.cls-5,.cls-7,.cls-8,.cls-9{stroke-miterlimit:10;}.cls-1,.cls-7,.cls-8,.cls-9{stroke-width:3px;}.cls-2{fill:#3a3212;}.cls-3,.cls-4{fill:#fff;}.cls-11,.cls-4,.cls-5,.cls-6{stroke-width:2px;}.cls-5,.cls-7{fill:#fff3dc;}.cls-6{fill:#826e45;}.cls-11,.cls-6{stroke-linejoin:round;}.cls-8{fill:#fdd3c7;}.cls-9{fill:#564e4c;}.cls-10{fill:#c0f2da;}.cls-11{fill:none;}</style></defs><title>logo ver1</title><g id="图层_2" data-name="图层 2"><g id="图层_2-2" data-name="图层 2"><path class="cls-1" d="M47.49,220.51s4.76-48.3,75.38-80.3c0,0,41.62-51.17,99.62-55.73,0,0,3-8.22,0-14.61,0,0-26,6.39-37-18.26s8-42,8-42,20-18.26,48,0,9,46.56,9,46.56-3,11.86,1,16.43,5,11,5,11,34,12.79,69,82.17,4,138.77,4,138.77Z"/><path class="cls-2" d="M108.05,145.85a33.49,33.49,0,0,1,4.4-2.62c1.51-.67,3-1.46,4.53-2a96.6,96.6,0,0,1,9.3-3.11c3.17-.75,6.31-1.64,9.53-2.13l4.79-.86c1.61-.22,3.22-.39,4.83-.59l4.83-.57,4.85-.3c3.23-.2,6.46-.46,9.69-.41s6.47-.09,9.7,0l9.68.42c3.23.07,6.44.42,9.65.71l9.64.89,9.58,1.32,4.79.65c1.6.21,3.2.43,4.78.75l9.51,1.71,4.76.86c1.58.28,3.17.57,4.74.94l18.86,4.19-18.94-3.82c-1.57-.34-3.16-.6-4.75-.85l-4.77-.76-9.53-1.53c-1.58-.28-3.18-.47-4.78-.65l-4.79-.56-9.58-1.13-9.62-.7c-3.2-.23-6.41-.51-9.62-.52l-9.63-.23c-3.21,0-6.42.15-9.62.22s-6.4.34-9.6.59l-4.78.4-4.76.65c-1.58.23-3.17.43-4.74.68l-4.7.93c-3.15.54-6.2,1.48-9.28,2.26a94.85,94.85,0,0,0-8.94,3.19c-1.49.55-2.85,1.33-4.27,2-.69.37-1.35.77-2,1.15-.35.18-.64.41-1,.61s-.63.42-.88.61Z"/><path class="cls-3" d="M255.49,36.09c0,18.66-15.29,33.32-36,33.32-8.08,0-16.88-1.1-23-5-9.57-6.12-13-16.92-13-28.3,0-18.65,14.29-33.78,35-33.78,7.77,0,14.1,2.75,20,6.39C248.32,14.77,255.49,24.43,255.49,36.09Z"/><path class="cls-4" d="M106.49,455.5s-49,18.65-75-44c0,0-46-51.26-25-69.41,0,0-14-55.39,20-87.86,0,0-1-76.4,81-76.4,0,0,62-76.4,129-4.77,0,0,85-14.33,86,73.53,0,0,43,16.24,20,82.13,0,0,17,57.3-31,82.13,0,0,3,44.89-65.5,51.1S165.49,470.5,106.49,455.5Z"/><path class="cls-5" d="M292.9,362.85s16.5-14.5,60-4c0,0-3.14,11.15-13.5,27.5-11.53,18.18-42.2,28.08-66,28C228.18,414.19,292.9,362.85,292.9,362.85Z"/><path class="cls-6" d="M294.4,378.82s8.74-6.92,35-8c0,0-6,7.62-11,14.51-5.58,7.66-18.08,11.16-32.08,13.74C259.75,404,294.4,378.82,294.4,378.82Z"/><path class="cls-5" d="M62.35,370.85s-16.5-14.5-60-4c0,0,3.14,11.15,13.5,27.5,11.53,18.18,42.2,28.08,66,28C127.07,422.19,62.35,370.85,62.35,370.85Z"/><path class="cls-6" d="M60.85,386.82s-8.74-6.92-35-8c0,0,6,7.62,11,14.51,5.58,7.66,18.09,11.16,32.08,13.74C95.5,412,60.85,386.82,60.85,386.82Z"/><path class="cls-7" d="M55,341s7-76,7-78,36-40,36-40l35-7,98-6.55L275,241s8.42,47.45,18,122c9,70-34,93-34,93s-52.5,28.5-137.5,11.5S60,364,60,364l1-17Z"/><path class="cls-8" d="M92.35,382.92c.4-.87,73.21-7.61,163.23,0,0,0,28.68,42.84-23.75,75.2s-117.72,0-117.72,0S68.61,435.27,92.35,382.92Z"/><circle class="cls-9" cx="94.99" cy="355" r="9"/><circle class="cls-9" cx="249.99" cy="357" r="9"/><path class="cls-10" d="M67,374s-60.5-66.5,2.5-129.5,133-44,133-44,93,19,104,86-29,88-29,88-16,13-5-19,10-71-9-95-18-42-18-42S256,272,193,286c0,0-16,4-18,16,0,0-7.5-4.5-22.5-17.5s-48-18-54-61c0,0,2.5,53.5-25.5,87.5,0,0-14,24,2,57C87.87,394.57,67,374,67,374Z"/><path class="cls-11" d="M67,374s-60.5-66.5,2.5-129.5,133-44,133-44,93,19,104,86-29,88-29,88-16,13-5-19,10-71-9-95-18-42-18-42S256,272,193,286c0,0-16,4-18,16,0,0-7.5-4.5-22.5-17.5s-48-18-54-61c0,0,2.5,53.5-25.5,87.5,0,0-14,24,2,57C87.87,394.57,67,374,67,374Z"/></g></g></svg>